<svg width="159" height="30" viewBox="0 0 159 30" fill="none" xmlns="http://www.w3.org/2000/svg">
<g clip-path="url(#clip0)">
<path d="M93.6096 24.1532L88.0155 16.4062L82.4265 24.1532H80.1237L86.8475 14.7935L80.7052 6.28595H83.0079L88.0129 13.2253L93.0179 6.28595H95.3181L89.1809 14.7935L95.9072 24.1558L93.6096 24.1532ZM50.0194 24.1506L43.288 14.7909L49.4303 6.28334H47.1276L42.1226 13.2253L37.1201 6.28595H34.8251L40.9648 14.7935L34.2334 24.1506H36.5387L42.1251 16.4062L47.7167 24.1506H50.0194Z" fill="white"/>
<path d="M62.8188 15.4679C62.473 15.1673 62.0862 14.9164 61.6713 14.723C62.9674 14.0199 63.7793 12.6425 63.7768 11.1448C63.7768 10.0026 63.3644 6.28334 58.0853 6.28334H50.9748V13.9859H48.608C48.3007 14.3936 47.604 15.3764 47.3376 15.7789H50.9774V24.1506L58.0879 24.1532C61.9402 24.1532 64.3326 22.1589 64.3326 18.9362C64.33 17.5301 63.8101 16.333 62.8188 15.4679ZM52.9394 8.14952H58.0853C59.4761 8.14952 61.8096 8.50237 61.8096 10.988C61.8096 12.8672 60.452 13.9859 58.0853 13.9859H52.9394V8.14952ZM58.0853 22.287H52.9394V15.7841H58.0853C60.0371 15.7841 62.3705 16.333 62.3705 18.8944C62.3705 21.8453 59.6862 22.287 58.0853 22.287ZM73.5793 5.87299C68.6614 5.87299 65.224 9.70989 65.224 15.2065C65.224 20.7109 68.6614 24.5452 73.5793 24.5452C78.4921 24.5452 81.9218 20.7109 81.9218 15.2065C81.9218 9.71251 78.4947 5.87299 73.5793 5.87299ZM73.5793 22.6581C69.8319 22.6581 67.2065 19.5923 67.2065 15.2091C67.2065 10.8259 69.8319 7.76269 73.5793 7.76269C77.3215 7.76269 79.9316 10.8259 79.9316 15.2091C79.9316 19.5923 77.3215 22.6581 73.5793 22.6581ZM4.211 4.37273L4.19819 4.38579V4.38841C1.41649 7.18245 -0.148537 11.0011 -0.143414 14.9843C-0.148537 18.2436 0.901644 21.414 2.84064 24.0068C2.86113 24.0329 2.89187 24.046 2.92004 24.0329C2.94566 24.0173 2.94822 23.9833 2.93797 23.9571C1.82119 20.4443 7.5101 11.9341 10.448 8.36645C10.4583 8.35338 10.4685 8.34032 10.4685 8.32202C10.4685 8.30111 10.4557 8.28543 10.4404 8.27236C5.49683 3.25145 4.1777 4.39886 4.19563 4.38318L4.211 4.37273ZM24.6921 4.37273L24.7049 4.38579V4.38841C27.4866 7.18245 29.0516 11.0011 29.0439 14.9843C29.0491 18.2436 27.9989 21.414 26.0599 24.0068C26.042 24.0329 26.0087 24.046 25.9805 24.0329C25.9549 24.0173 25.9549 23.9833 25.9626 23.9571C27.0742 20.447 21.393 11.9315 18.455 8.36123C18.4448 8.34816 18.4345 8.33509 18.4345 8.31941C18.4345 8.2985 18.4474 8.28281 18.4627 8.26975C23.4063 3.24884 24.7177 4.40409 24.6998 4.38841L24.6921 4.37273ZM14.4515 0.0914917C17.3972 0.0914917 19.8203 0.914806 22.0538 2.27131C22.082 2.28438 22.0897 2.31575 22.0794 2.3445C22.0692 2.37063 22.0385 2.37848 22.0077 2.37063C19.1825 1.74857 14.887 4.23943 14.4823 4.48773C14.472 4.49296 14.4643 4.5008 14.4515 4.5008C14.4387 4.5008 14.4285 4.49557 14.4182 4.48773C13.3399 3.85783 9.36969 1.73289 6.86975 2.38632C6.84157 2.39154 6.81083 2.38893 6.79803 2.36018C6.78778 2.33404 6.79803 2.30268 6.82364 2.287C9.05976 0.914806 11.5136 0.0914917 14.4515 0.0914917ZM14.4515 12.0361C14.4695 12.0361 14.4874 12.0492 14.4976 12.0596C18.8649 15.4496 26.3416 23.8265 24.0594 26.1945L24.062 26.1919L24.0594 26.1945H24.0569C21.4007 28.5729 17.9837 29.885 14.449 29.8798C10.9142 29.885 7.49729 28.5729 4.8411 26.1945L4.83854 26.1919L4.8411 26.1945C2.564 23.8265 10.0382 15.447 14.4003 12.0596C14.4131 12.0492 14.4336 12.0361 14.4515 12.0361Z" fill="white"/>
<mask id="mask0" style="mask-type:alpha" maskUnits="userSpaceOnUse" x="103" y="2" width="53" height="25">
<path d="M143.032 14.9007L145.324 11.6858C144.571 11.5055 143.857 11.1919 143.214 10.7554C142.576 10.2614 142.22 9.47727 142.263 8.6618C142.23 7.83848 142.619 7.05699 143.291 6.59959C144.182 6.05856 145.214 5.80241 146.249 5.87037C150.281 5.87037 151.328 8.0319 152.043 8.94669L154.205 5.9148C153.838 5.30843 153.377 4.76739 152.837 4.31522C151.331 3.04497 149.115 2.41245 146.187 2.41245C143.611 2.41245 141.597 2.99008 140.145 4.14272C138.718 5.23786 137.906 6.97074 137.965 8.79248C137.968 11.874 139.656 13.8212 143.032 14.9007ZM154.146 14.7386C153.137 13.8212 151.572 13.1025 149.451 12.5823L147.133 15.8338C148.347 16.0821 149.499 16.5656 150.532 17.2609C151.182 17.7183 151.551 18.4867 151.513 19.2917C151.561 20.2483 151.126 21.1657 150.36 21.7198C149.361 22.3445 148.196 22.6372 147.028 22.5614C143.675 22.5614 142.097 21.4271 140.481 18.4762L138.168 21.7198C138.58 22.5876 139.174 23.3508 139.909 23.9571C141.559 25.3319 143.89 26.0194 146.902 26.0194C149.725 26.0194 151.928 25.4104 153.505 24.195C155.078 22.9927 155.964 21.0742 155.872 19.0695C155.957 17.436 155.324 15.8495 154.146 14.7386ZM134.218 25.5149H133.252V2.91951H134.215L134.218 25.5149ZM105.84 2.81235C106.158 2.79667 106.462 2.94303 106.657 3.20179C107.057 3.89703 107.041 4.76216 106.619 5.44434C106.386 5.724 106.04 5.8756 105.679 5.85992H105.674V5.16729H105.679C105.886 5.18297 106.089 5.09672 106.224 4.93728C106.347 4.73864 106.404 4.50602 106.388 4.27079C106.401 4.07999 106.355 3.88919 106.255 3.72714C106.168 3.60168 106.024 3.53111 105.873 3.53895C105.748 3.53373 105.627 3.59384 105.556 3.69839C105.456 3.87874 105.389 4.07738 105.361 4.28386L105.3 4.59227C105.256 4.91637 105.125 5.22217 104.918 5.4757C104.734 5.67173 104.477 5.77889 104.211 5.77105C103.922 5.78151 103.645 5.64559 103.471 5.41036C103.274 5.11763 103.176 4.76739 103.197 4.41454C103.171 4.0251 103.276 3.63566 103.499 3.31679C103.712 3.06326 104.021 2.91951 104.347 2.92212H104.352V3.6043H104.349C104.178 3.6043 104.014 3.67748 103.901 3.81078C103.791 3.9859 103.74 4.19499 103.755 4.40409C103.745 4.57398 103.786 4.74125 103.87 4.88762C103.942 4.9974 104.065 5.06012 104.193 5.0549C104.321 5.06012 104.442 5.00262 104.521 4.90069C104.621 4.7308 104.687 4.54261 104.716 4.34397L104.777 4.0251C104.823 3.68794 104.951 3.36906 105.154 3.09724C105.328 2.90121 105.581 2.79928 105.84 2.81235ZM105.148 22.7522C104.949 23.0241 104.818 23.3429 104.772 23.6801L104.71 23.999C104.682 24.195 104.616 24.3858 104.516 24.5557C104.439 24.6576 104.316 24.7151 104.188 24.7099C104.06 24.7151 103.937 24.6524 103.865 24.5426C103.781 24.3962 103.74 24.229 103.75 24.0591C103.735 23.85 103.783 23.6435 103.896 23.4658C104.009 23.3351 104.173 23.2593 104.344 23.2593H104.349V22.5745H104.344C104.019 22.5719 103.706 22.7156 103.496 22.9692C103.274 23.288 103.166 23.6749 103.194 24.0669C103.174 24.4224 103.271 24.7726 103.468 25.0627C103.642 25.298 103.919 25.4339 104.208 25.4234C104.475 25.4313 104.731 25.3241 104.915 25.1281C105.12 24.8772 105.253 24.5714 105.297 24.2446L105.358 23.9362C105.389 23.7298 105.453 23.5337 105.553 23.3508C105.625 23.2462 105.745 23.1861 105.871 23.1913C106.022 23.1835 106.165 23.2541 106.252 23.3795C106.35 23.5442 106.396 23.7324 106.386 23.9232C106.401 24.1584 106.345 24.391 106.222 24.5897C106.086 24.7517 105.884 24.838 105.676 24.8197H105.671V25.5071H105.676C106.035 25.5254 106.381 25.3712 106.616 25.0915C107.039 24.4093 107.054 23.5442 106.655 22.8489C106.462 22.5902 106.155 22.4438 105.837 22.4595C105.579 22.4517 105.328 22.5562 105.148 22.7522ZM106.865 13.8395V14.5635C106.731 14.6341 106.583 14.6681 106.434 14.6628L106.042 14.6785C105.878 14.6707 105.72 14.723 105.592 14.8275C105.497 14.9477 105.451 15.1019 105.464 15.2562V16.1526H106.867V16.8557H103.274V15.196C103.274 15.1176 103.276 15.0366 103.284 14.9582C103.284 14.9817 103.284 15.0079 103.284 15.034C103.291 14.7857 103.363 14.5452 103.489 14.3335L103.46 14.3701C103.486 14.3257 103.514 14.2839 103.545 14.2447C103.727 14.0199 104.001 13.8918 104.288 13.9049C104.675 13.8787 105.028 14.1244 105.143 14.5034C105.187 14.3466 105.279 14.2107 105.41 14.1192C105.561 14.0303 105.732 13.9859 105.907 13.9885L106.439 13.9571C106.585 13.9598 106.729 13.9232 106.854 13.8474L106.865 13.8395ZM104.367 14.6289C104.219 14.621 104.075 14.6811 103.978 14.7961C103.881 14.9321 103.832 15.0993 103.845 15.2666V16.1553H104.92V15.2352C104.931 15.0732 104.88 14.9111 104.78 14.7857C104.669 14.6733 104.518 14.6158 104.367 14.6289ZM103.279 12.3706H106.87V11.6675H103.279V12.3706ZM103.896 7.2687H103.276V9.96865H106.867V7.2687H106.247V9.26818H105.33V7.4595H104.736V9.26818H103.891L103.896 7.2687ZM103.896 18.3586H103.276V21.0586H106.867V18.3586H106.247V20.3581H105.33V18.5494H104.736V20.3581H103.891L103.896 18.3586ZM108.427 25.5123H113.191L116.811 20.4365L114.428 17.0962L108.427 25.5123ZM129.303 2.91951H124.538L121.577 7.07267L123.96 10.413L129.303 2.91951ZM113.85 2.91951H109.085L125.197 25.5097H129.961L113.85 2.91951Z" fill="black"/>
</mask>
<g mask="url(#mask0)">
<path d="M158.884 0.138542H99.0112V30.1385H158.884V0.138542Z" fill="white"/>
</g>
</g>
<defs>
<clipPath id="clip0">
<rect width="159" height="30" fill="white"/>
</clipPath>
</defs>
</svg>
